<?xml version="1.0" standalone="no"?>
<!DOCTYPE svg PUBLIC "-//W3C//DTD SVG 1.1//EN" "http://www.w3.org/Graphics/SVG/1.1/DTD/svg11.dtd" >
<svg xmlns="http://www.w3.org/2000/svg">
<metadata></metadata>
<defs>
<font id="VodafoneRgRegular" horiz-adv-x="1050" >
<font-face units-per-em="2048" ascent="1638" descent="-410" />
<missing-glyph horiz-adv-x="389" />
<glyph horiz-adv-x="0" />
<glyph horiz-adv-x="0" />
<glyph unicode="&#xd;" horiz-adv-x="456" />
<glyph unicode=" "  horiz-adv-x="389" />
<glyph unicode="&#x09;" horiz-adv-x="389" />
<glyph unicode="&#xa0;" horiz-adv-x="389" />
<glyph unicode="!" horiz-adv-x="385" d="M88 88q0 51 29.5 82t76 31t75 -31t28.5 -82t-28.5 -81t-74.5 -30t-76 30t-30 81zM121 418v948h147v-948h-147z" />
<glyph unicode="&#x22;" horiz-adv-x="620" d="M98 760v606h140v-606h-140zM383 760v606h141v-606h-141z" />
<glyph unicode="#" horiz-adv-x="1150" d="M0 496v139h328v248h-328v137h328v346h131v-346h233v346h133v-346h326v-137h-326v-248h326v-139h-326v-344h-133v344h-233v-344h-131v344h-328zM459 635h233v248h-233v-248z" />
<glyph unicode="$" d="M76 168l100 111q47 -70 119 -116t164 -50v553q-163 74 -223 133t-87.5 118.5t-27.5 137.5t26.5 138t72.5 102q94 86 239 96v270h125v-270q181 -16 294 -139q31 -35 50 -72l-99 -88q-45 68 -101 109.5t-144 51.5v-471q196 -98 269 -176q87 -93 87 -245q0 -82 -27.5 -151 t-74.5 -118q-94 -98 -254 -117v-276h-125v276q-123 2 -224.5 55.5t-158.5 137.5zM268 1067q0 -128 119 -201q35 -22 72 -41v430q-80 -6 -135.5 -54t-55.5 -134zM584 111q84 8 144 70t60 163.5t-52 161t-152 112.5v-507z" />
<glyph unicode="%" horiz-adv-x="1439" d="M51 92l1233 1282l92 -98l-1231 -1290zM66 1065q0 127 87 221q86 92 209 92q124 0 210 -92q87 -94 87 -222q0 -65 -23.5 -121t-63.5 -99q-86 -92 -210 -92q-123 0 -209 92q-87 94 -87 221zM190 1067q0 -73 50 -130q48 -56 120 -56q70 0 120 56q50 55 50 130t-50 130 q-50 56 -120 56q-72 0 -120 -56q-50 -57 -50 -130zM797 299q0 130 85 221q86 92 210 92q125 0 210 -92q87 -95 87 -222q0 -65 -24 -121t-63 -99q-85 -92 -210 -92q-124 0 -210 92q-85 91 -85 221zM920 301q0 -74 48.5 -130t121.5 -56q71 0 121.5 56t50.5 130q0 76 -50 131 q-52 55 -122 55q-73 0 -122 -55q-48 -55 -48 -131z" />
<glyph unicode="&#x26;" horiz-adv-x="1257" d="M57 348q0 216 189 356q57 41 119 74l51 27l-27 31q-71 83 -89 124q-34 74 -34 137.5t22.5 114t64.5 86.5q89 78 243 78q146 0 242 -78q61 -51 108 -147l-115 -88q-74 136 -156 172q-36 16 -101.5 16t-107.5 -41t-42 -101t26.5 -104t73.5 -104l369 -477l215 299l104 -88 l-231 -320l223 -315h-170l-143 199q-93 -106 -166 -148q-130 -74 -254.5 -74t-201 33t-123.5 86q-89 100 -89 252zM209 348q0 -158 135 -221q49 -23 110.5 -23t109.5 17.5t90 46.5q74 51 143 139l-301 402l-35 -19q-116 -62 -162 -115q-90 -106 -90 -227z" />
<glyph unicode="'" horiz-adv-x="331" d="M98 760v606h135v-606h-135z" />
<glyph unicode="(" horiz-adv-x="559" d="M86 697.5q0 150.5 30.5 276.5t83.5 228q102 192 277 299l72 -92q-174 -138 -245 -292q-73 -159 -73 -419q0 -472 328 -729l-67 -102q-283 194 -374 554q-32 126 -32 276.5z" />
<glyph unicode=")" horiz-adv-x="561" d="M0 -31q227 176 301 481q27 111 27 245t-17.5 236.5t-55.5 185.5q-71 154 -245 292l72 92q273 -168 360 -527q31 -126 31 -277t-31.5 -276.5t-85.5 -228.5q-105 -200 -288 -325z" />
<glyph unicode="*" horiz-adv-x="827" d="M68 924l247 172l-247 178l61 102l227 -164v273h111v-273l231 162l62 -98l-250 -178l248 -178l-56 -107l-235 168v-287h-111v287l-233 -166z" />
<glyph unicode="+" d="M66 608v144h391v448h137v-448h391v-144h-391v-450h-137v450h-391z" />
<glyph unicode="," horiz-adv-x="374" d="M68 -176q97 86 104 149q-35 4 -66.5 34t-31.5 79t27.5 86t81.5 37t82 -41t28 -94t-19.5 -102.5t-47.5 -91.5q-53 -82 -113 -120z" />
<glyph unicode="-" horiz-adv-x="567" d="M84 461v145h401v-145h-401z" />
<glyph unicode="." horiz-adv-x="385" d="M84 92q0 53 30.5 85t79 32t78 -32t29.5 -85t-29.5 -84t-77.5 -31t-79 31t-31 84z" />
<glyph unicode="/" horiz-adv-x="933" d="M0 27l819 1525l115 -67l-815 -1532z" />
<glyph unicode="0" d="M61 676q0 286 113 482q127 220 352 220q223 0 350 -220q113 -194 113 -482t-113 -482q-128 -223 -350 -223q-225 0 -352 223q-113 197 -113 482zM225 678q0 -227 72 -383q82 -178 229 -178q148 0 226 178q71 159 71 383t-71 379q-79 174 -226 174q-150 0 -230 -174 q-71 -154 -71 -379z" />
<glyph unicode="1" d="M154 1081l389 271h137v-1352h-158v1165l-293 -196z" />
<glyph unicode="2" d="M100 1182q186 196 416 196q170 0 274 -101q103 -99 103 -261q0 -187 -137 -339q-47 -52 -111 -108l-196 -172q-95 -82 -120 -120q-46 -69 -46 -138h643v-139h-811v90q0 170 97 274q34 37 81 80l180 164q150 137 188.5 193.5t51 98.5t12.5 95q0 117 -58.5 177.5 t-151.5 60.5t-168 -37t-169 -131z" />
<glyph unicode="3" d="M72 111l67 133q76 -66 149.5 -96.5t150.5 -30.5t127 15t90 49q89 76 89 225q0 284 -319 284q-52 0 -139 -10v113q58 85 144 182q157 181 235 235h-574v140h752v-160q-129 -81 -305 -289q-45 -53 -76 -94q10 2 19 2h20q279 0 372 -216q33 -75 33 -178t-35.5 -185.5 t-95.5 -138.5q-125 -118 -309 -118q-250 0 -395 138z" />
<glyph unicode="4" d="M76 344v145l639 861h98v-869h141v-137h-141v-344h-145v344h-592zM225 481h443v592z" />
<glyph unicode="5" d="M86 106l64 140q55 -49 139 -89t166.5 -40t135 17.5t90.5 53.5q83 77 83 226t-89 234t-269 85q-109 0 -205 -22v639h669v-140h-524v-352q62 8 98 8q223 0 349.5 -115.5t126.5 -326.5q0 -220 -130 -340q-120 -111 -315 -111q-177 0 -330 89q-39 22 -59 44z" />
<glyph unicode="6" d="M133 504.5q0 218.5 53.5 377t149.5 266.5q195 218 528 218l31 -123q-331 0 -485 -237q-54 -84 -80 -201q111 76 220 76t180 -37t120 -100q100 -130 100 -320t-106 -318q-111 -133 -291 -133q-207 0 -321 169q-99 144 -99 362.5zM293 523.5q0 -75.5 12 -147t43 -130.5 q70 -135 207 -135q115 0 183 97q59 86 59 215q0 60 -16.5 118.5t-49.5 102.5q-71 95 -194 95q-130 0 -234 -82q-10 -58 -10 -133.5z" />
<glyph unicode="7" d="M115 1210v140h848v-140q-428 -565 -488 -1210h-164q24 299 151 622q127 321 335 588h-682z" />
<glyph unicode="8" d="M117 371q0 106 46 194t140 140q-76 53 -121 135t-45 174q0 170 123 273q109 91 266 91q155 0 266 -89q119 -96 119 -276t-161 -306q90 -47 136 -138.5t46 -193.5t-35 -177t-92 -125q-114 -100 -279 -100q-166 0 -280 100q-129 112 -129 298zM266 373q0 -121 84 -194 q74 -64 176 -64q166 0 234 141q22 47 22 111.5t-22.5 113.5t-59.5 84q-75 72 -176 72q-99 0 -176 -71q-82 -75 -82 -193zM289 1014q0 -115 75 -182q67 -62 160 -62q90 0 161 64q75 67 75 179q0 58 -20.5 101t-53.5 72q-64 55 -160 55q-94 0 -162 -57q-75 -61 -75 -170z" />
<glyph unicode="9" d="M121 928q0 190 107 318q110 132 290 132q207 0 322 -168q98 -144 98 -362.5t-52 -379.5t-144 -268q-185 -218 -486 -218h-24q-13 0 -25 2l18 135h35q269 0 404 226q49 81 77 202q-111 -76 -220 -76t-180 37t-120 100q-100 130 -100 320zM274 928q0 -62 16.5 -119 t49.5 -101q72 -96 195 -96q129 0 233 82q10 58 10 134t-12 147.5t-43 130.5q-71 135 -207 135q-114 0 -182 -97q-60 -85 -60 -216z" />
<glyph unicode=":" horiz-adv-x="385" d="M84 92q0 53 30.5 85t79 32t78 -32t29.5 -85t-29.5 -84t-77.5 -31t-79 31t-31 84zM84 860q0 53 30.5 85t79 32t78 -32t29.5 -85t-29.5 -84t-77.5 -31t-79 31t-31 84z" />
<glyph unicode=";" horiz-adv-x="397" d="M68 -176q97 86 104 149q-35 4 -66.5 34t-31.5 79t27.5 86t81.5 37t82 -41t28 -94t-19.5 -102.5t-47.5 -91.5q-53 -82 -113 -120zM109 860q0 53 30.5 85t79 32t78 -32t29.5 -85t-29.5 -84t-77.5 -31t-79 31t-31 84z" />
<glyph unicode="&#x3c;" d="M104 623v118l795 320l55 -137l-602 -238l629 -256l-55 -147z" />
<glyph unicode="=" d="M66 303v143h919v-143h-919zM66 764v141h919v-141h-919z" />
<glyph unicode="&#x3e;" d="M104 430l629 256l-604 238l57 137l795 -320v-118l-823 -340z" />
<glyph unicode="?" horiz-adv-x="720" d="M-23 1139q139 239 379 239q174 0 263.5 -93t89.5 -247q0 -104 -41 -175.5t-97.5 -133t-85 -97.5t-45.5 -66q-28 -53 -28 -115v-74h-144v86q0 96 45 165.5t106 136.5t98.5 124t37.5 152t-53 150.5t-146.5 55.5t-159 -54t-116.5 -132zM236 88q0 51 29.5 82t75.5 31 t74.5 -31t28.5 -82t-28.5 -81t-74.5 -30t-75.5 30t-29.5 81z" />
<glyph unicode="@" horiz-adv-x="1509" d="M102 475.5q0 177.5 47.5 333.5t138.5 271.5t227 183t300 67.5t263.5 -41t157.5 -106q105 -116 105 -291v-825h-149v59q-41 -35 -108.5 -58.5t-144.5 -23.5t-143.5 32t-114.5 90q-103 124 -103 318t104 311q101 115 248.5 115t261.5 -71v43q0 147 -88 233t-256.5 86 t-276.5 -60.5t-177 -159.5q-136 -193 -136 -503q0 -249 119 -423q162 -236 541 -236q258 0 475 92l34 -143q-119 -57 -360 -83q-82 -8 -211 -8t-252 39t-211 104.5t-144 149.5t-89 172q-58 155 -58 332.5zM729 494q0 -134 57 -226q58 -96 156 -96q150 0 248 76v473 q-112 63 -228 63t-174.5 -77.5t-58.5 -212.5z" />
<glyph unicode="A" horiz-adv-x="1105" d="M0 0l485 1366h127l494 -1366h-170l-154 422h-475l-143 -422h-164zM358 567h373l-188 566z" />
<glyph unicode="B" horiz-adv-x="1044" d="M158 0v1366h368q197 0 295.5 -94t98.5 -239.5t-71 -216.5t-181 -91q211 -23 290 -189q29 -63 29 -153t-27.5 -160.5t-79.5 -120.5q-106 -102 -272 -102h-450zM313 141h289q98 0 158.5 60.5t60.5 183.5q0 260 -301 260h-207v-504zM313 786h201q117 0 180.5 66t63.5 172 q0 201 -226 201h-219v-439z" />
<glyph unicode="C" horiz-adv-x="1107" d="M96 678q0 358 167 549q145 166 366 166q141 0 241.5 -59.5t176.5 -188.5l-115 -94q-69 100 -113 130q-90 62 -194 62q-172 0 -268.5 -147.5t-96.5 -419.5q0 -258 110 -410q102 -143 269 -143q119 0 192.5 37t141.5 102l57 -147q-91 -91 -262 -129q-61 -13 -153.5 -13 t-190.5 40t-171 125q-157 183 -157 540z" />
<glyph unicode="D" horiz-adv-x="1189" d="M158 0v1366h334q378 0 538 -280q90 -159 90 -397q0 -130 -30.5 -243.5t-85.5 -197.5q-142 -213 -402 -242q-61 -6 -110 -6h-334zM313 141h160q121 0 197 29q201 95 262 324q22 85 22 231.5t-51 255.5q-114 244 -422 244h-168v-1084z" />
<glyph unicode="E" horiz-adv-x="999" d="M158 0v1366h757v-141h-602v-439h430v-141h-432v-504h650v-141h-803z" />
<glyph unicode="F" horiz-adv-x="897" d="M158 0v1366h735v-141h-580v-461h428v-141h-430v-623h-153z" />
<glyph unicode="G" horiz-adv-x="1161" d="M96 678q0 358 160 549q139 166 362 166q235 0 360 -148q38 -45 69 -98l-115 -96q-59 90 -127 143t-159 53t-158.5 -32.5t-119.5 -102.5q-108 -147 -108 -436q0 -255 117 -414q107 -145 269 -145t263 37v356h-215v143h371v-602q-57 -27 -169 -52.5t-237 -25.5t-225 40 t-175 125q-163 185 -163 540z" />
<glyph unicode="H" horiz-adv-x="1273" d="M158 0v1366h155v-592h650v592h153v-1366h-153v629h-650v-629h-155z" />
<glyph unicode="I" horiz-adv-x="471" d="M158 0v1366h155v-1366h-155z" />
<glyph unicode="J" horiz-adv-x="712" d="M-8 41l51 139q11 -11 49 -28q77 -35 156.5 -35t127.5 49t48 176v1024h156v-1038q0 -178 -86 -264.5t-248 -86.5q-160 0 -254 64z" />
<glyph unicode="K" horiz-adv-x="1107" d="M158 2v1364h155v-596h166q57 0 99.5 27.5t85.5 124.5l194 444h168l-207 -463q-64 -139 -143 -172q59 -16 93 -55t62 -111l226 -565h-166l-174 424q-25 57 -43.5 98t-41.5 66q-45 49 -128 49h-191v-635h-155z" />
<glyph unicode="L" horiz-adv-x="954" d="M158 0v1366h155v-1225h602v-141h-757z" />
<glyph unicode="M" horiz-adv-x="1462" d="M125 0l65 1366h183l356 -1116l371 1116h180l57 -1366h-149l-47 1055l-369 -1078h-102l-357 1084l-53 -1061h-135z" />
<glyph unicode="N" horiz-adv-x="1280" d="M158 0v1366h157l654 -1018v1018h153v-1366h-114l-697 1083v-1083h-153z" />
<glyph unicode="O" horiz-adv-x="1286" d="M96 684q0 290 130 488q147 221 417 221t417 -221q130 -198 130 -488q0 -293 -130 -488q-149 -223 -417 -223t-417 223q-130 195 -130 488zM258 684q0 -229 94 -389q103 -176 291 -176q186 0 292 176q93 155 93 388q0 105 -22.5 206.5t-69.5 181.5q-103 176 -293 176 t-293 -176q-92 -157 -92 -387z" />
<glyph unicode="P" horiz-adv-x="1038" d="M158 0v1366h405q438 0 438 -414q0 -199 -113.5 -301t-330.5 -102h-244v-549h-155zM313 692h254q119 0 194 61.5t75 202.5q0 269 -271 269h-252v-533z" />
<glyph unicode="Q" horiz-adv-x="1286" d="M96 684q0 290 130 488q147 221 417 221t417 -221q130 -198 130 -465t-90 -443q96 -72 150.5 -136.5t82.5 -102.5l-106 -93q-88 115 -207 211q-144 -170 -377 -170q-268 0 -417 223q-130 195 -130 488zM258 684q0 -229 94 -389q103 -176 291 -176q147 0 246 112 q-102 60 -250 107l45 135q162 -51 281 -121q63 137 63 332q0 230 -92 387q-103 176 -293 176t-293 -176q-92 -157 -92 -387z" />
<glyph unicode="R" horiz-adv-x="1128" d="M158 0v1366h415q217 0 320.5 -102.5t103.5 -270.5q0 -144 -81 -238q-63 -72 -140 -96q95 -31 140 -155q14 -37 25 -79t27.5 -98.5t32.5 -115.5l56 -211h-160l-55 213q-75 301 -150 355q-41 30 -125 30h-254v-598h-155zM313 739h252q271 0 271 254q0 232 -258 232h-265 v-486z" />
<glyph unicode="S" horiz-adv-x="1003" d="M78 109l67 145q165 -137 347 -137q187 0 252 129q22 45 22 105t-21.5 102.5t-61.5 74.5q-57 44 -173.5 89t-181 77.5t-115.5 77.5q-113 100 -113 254q0 170 128 274q113 91 288 91q127 0 235.5 -48.5t180.5 -134.5l-76 -118q-144 155 -345 155h-3q-115 0 -178.5 -54 t-63.5 -151q0 -98 77 -160q52 -41 228 -114q183 -75 244.5 -129.5t89 -116t27.5 -158.5t-36 -173t-98 -125q-118 -93 -313 -93q-182 0 -338 89q-41 24 -69 49z" />
<glyph unicode="T" horiz-adv-x="993" d="M18 1225v141h959v-141h-404v-1225h-153v1225h-402z" />
<glyph unicode="U" horiz-adv-x="1259" d="M150 457v909h155v-879q0 -174 85 -271t239 -97t239.5 94t85.5 274v879h156v-909q0 -229 -148 -361q-136 -123 -337 -123q-210 0 -339 123q-136 130 -136 361z" />
<glyph unicode="V" horiz-adv-x="1079" d="M0 1366h172l373 -1126l370 1126h164l-465 -1366h-143z" />
<glyph unicode="W" horiz-adv-x="1460" d="M0 1366h158l221 -1067l309 1067h115l276 -1059l224 1059h157l-315 -1366h-119l-289 1059l-311 -1059h-123z" />
<glyph unicode="X" horiz-adv-x="1003" d="M0 0l403 700l-368 666h188l279 -537l284 537h179l-369 -653l408 -713h-195l-311 586l-320 -586h-178z" />
<glyph unicode="Y" horiz-adv-x="1056" d="M0 1366h176l348 -553l363 553h170l-459 -709v-657h-156v655z" />
<glyph unicode="Z" horiz-adv-x="1040" d="M74 0v152l731 1073h-699v141h842v-176l-712 -1049h741v-141h-903z" />
<glyph unicode="[" horiz-adv-x="444" d="M137 -293v1800h287v-129h-148v-1540h148v-131h-287z" />
<glyph unicode="\" horiz-adv-x="919" d="M0 1485l127 74l793 -1498l-121 -84z" />
<glyph unicode="]" horiz-adv-x="444" d="M20 -162h148v1540h-148v129h287v-1800h-287v131z" />
<glyph unicode="^" horiz-adv-x="976" d="M119 651l309 719h113l317 -690l-133 -59l-242 526l-227 -549z" />
<glyph unicode="_" horiz-adv-x="1024" d="M0 -307h1024v-144h-1024v144z" />
<glyph unicode="`" horiz-adv-x="860" d="M217 1368l100 107l326 -285l-72 -76z" />
<glyph unicode="a" horiz-adv-x="915" d="M74 283q0 187 188 279q150 73 375 73v12q0 230 -193 230q-135 0 -264 -103l-49 115q53 41 131 76.5t214.5 35.5t223 -83.5t86.5 -280.5v-637h-137l-6 84q-103 -107 -252 -107q-128 0 -219 77q-98 83 -98 229zM225 294q0 -60 17.5 -93t43.5 -55q50 -40 124 -40 q111 0 227 101v303q-177 -5 -254.5 -35.5t-117.5 -75.5t-40 -105z" />
<glyph unicode="b" horiz-adv-x="1019" d="M135 51v1315h150v-420q108 53 211.5 53t180.5 -33.5t133 -97.5q120 -139 120 -381q0 -231 -132 -371q-131 -139 -314.5 -139t-348.5 74zM285 139q81 -37 161 -37q158 0 248 106t90 284q0 173 -88 278q-84 100 -203 100t-208 -61v-670z" />
<glyph unicode="c" horiz-adv-x="921" d="M90 485q0 258 134 397q116 119 288 119q138 0 239 -73q67 -49 107 -129l-104 -78q-45 70 -97.5 111.5t-125 41.5t-123 -25.5t-88.5 -74.5q-82 -108 -82 -285t87 -284q82 -101 205 -101q160 0 269 105l43 -129q-53 -47 -138.5 -75t-175.5 -28t-167.5 31t-136.5 94 q-134 143 -134 383z" />
<glyph unicode="d" horiz-adv-x="1019" d="M90 498q0 207 112 346q125 157 337 157q115 0 202 -36v401h150v-1366h-137l-13 80q-96 -103 -239 -103q-192 0 -304 150q-108 143 -108 371zM238 489q0 -267 160 -355q55 -30 128 -30q130 0 215 111v612q-70 47 -167 47t-157.5 -32.5t-100.5 -87.5q-78 -106 -78 -265z " />
<glyph unicode="e" horiz-adv-x="989" d="M90 494q0 229 114 370q112 137 300 137q200 0 307 -139q102 -134 102 -364h-675q0 -184 79.5 -289t233 -105t283.5 109l38 -129q-64 -64 -221 -96q-51 -11 -106 -11q-209 0 -332 132.5t-123 384.5zM252 623h491q-4 120 -79 191q-65 63 -158.5 63t-161.5 -58.5t-92 -195.5 z" />
<glyph unicode="f" horiz-adv-x="569" d="M39 848v129h137v72q0 264 170 325q51 19 112 19q85 0 165 -29l-15 -131q-60 29 -115 29t-81.5 -8.5t-45.5 -31.5q-40 -48 -40 -175v-70h221v-129h-219v-848h-152v848h-137z" />
<glyph unicode="g" horiz-adv-x="1019" d="M90 498q0 207 116 346q58 71 146 114t237 43t302 -61v-944q0 -280 -244 -372q-80 -30 -159.5 -30t-132 8.5t-95.5 19.5q-83 21 -125 46l35 137q132 -79 285 -79t219.5 72.5t66.5 197.5v96q-95 -102 -239 -102q-193 0 -304 144q-108 138 -108 364zM238 489 q0 -264 160 -345q55 -27 128 -27q131 0 215 110v617q-79 31 -169 31q-2 0 -3 -1q-92 0 -152.5 -32.5t-100.5 -87.5q-78 -106 -78 -265z" />
<glyph unicode="h" horiz-adv-x="1048" d="M135 0v1366h150v-467q135 102 305.5 102t250 -100t79.5 -293v-608h-152v610q0 135 -52 199.5t-169.5 64.5t-261.5 -110v-764h-150z" />
<glyph unicode="i" horiz-adv-x="419" d="M111 1248q0 48 29.5 75t70.5 27t69.5 -27t28.5 -75t-28.5 -73.5t-69.5 -25.5t-70.5 25.5t-29.5 73.5zM135 0v977h152v-977h-152z" />
<glyph unicode="j" horiz-adv-x="419" d="M4 -281q119 82 128 177q3 30 3 69v1012h152v-1008q0 -143 -56.5 -228t-167.5 -144zM111 1248q0 48 29.5 75t70.5 27t69.5 -27t28.5 -75t-28.5 -73.5t-69.5 -25.5t-70.5 25.5t-29.5 73.5z" />
<glyph unicode="k" horiz-adv-x="921" d="M135 0v1366h150v-752h100q57 0 102 30t88 126l91 207h161l-102 -225q-70 -153 -143 -183q57 -16 92 -50t63 -105l164 -414h-166l-110 272q-59 135 -84 162q-45 49 -131 49h-125v-483h-150z" />
<glyph unicode="l" horiz-adv-x="507" d="M123 258v1108h149v-1133q0 -68 20.5 -97.5t59.5 -29.5t101 29l34 -117q-69 -36 -153 -36q-121 0 -166 67.5t-45 208.5z" />
<glyph unicode="m" horiz-adv-x="1611" d="M135 0v977h137l11 -78q137 102 282 102q176 0 258 -124q143 124 326 124q271 0 319 -236q15 -77 15 -175v-590h-152v610q0 123 -45 191.5t-164 68.5q-99 0 -212 -74q-29 -18 -48 -34q19 -66 19 -172v-590h-150v610q0 260 -194 260q-103 0 -252 -108v-762h-150z" />
<glyph unicode="n" horiz-adv-x="1052" d="M135 0v977h137l11 -78q129 102 307 102t256 -97t78 -296v-608h-150v612q0 123 -52 192.5t-177.5 69.5t-259.5 -108v-766h-150z" />
<glyph unicode="o" horiz-adv-x="1042" d="M90 494q0 207 106 350q118 157 326 157q106 0 188.5 -44t135.5 -115q108 -146 108 -353q0 -206 -108 -351q-119 -161 -324 -161q-204 0 -324 161q-108 148 -108 356zM238 494q0 -255 160 -356q53 -34 124 -34q133 0 214 122q71 108 71 266q0 157 -71 264 q-80 121 -214 121q-138 0 -215 -121q-69 -107 -69 -262z" />
<glyph unicode="p" horiz-adv-x="1019" d="M135 -387v1364h135l13 -72q111 96 268 96q196 0 293 -151q86 -134 86 -350q0 -234 -132 -380q-127 -143 -331 -143q-111 0 -182 33v-397h-150zM285 147q62 -43 144.5 -43t146 27t108.5 76q96 105 96 287q0 254 -141 346q-51 34 -127 34q-123 0 -227 -104v-623z" />
<glyph unicode="q" horiz-adv-x="1026" d="M90 489q0 229 136 371q135 141 368 141q125 0 297 -26v-1362h-150v418q-101 -56 -207 -56t-184 36t-136 103q-124 142 -124 375zM240 485q0 -166 92 -273q91 -106 238 -106q82 0 171 60v694q-68 14 -145 14t-139 -24.5t-110 -73.5q-107 -109 -107 -291z" />
<glyph unicode="r" horiz-adv-x="604" d="M135 0v977h135l15 -98q132 122 245 122q33 0 84 -10l-18 -145q-35 8 -74 8q-114 0 -237 -123v-731h-150z" />
<glyph unicode="s" horiz-adv-x="800" d="M82 88l53 127q128 -111 275 -111q190 0 190 154q0 70 -58 114q-28 21 -74 39.5t-110 43.5q-139 51 -196.5 113.5t-57.5 173t83 185t207 74.5q208 0 327 -114l-64 -113q-104 100 -247 100q-86 0 -124 -40.5t-38 -82t10 -63.5t34 -40q35 -26 172.5 -77t206 -117.5 t68.5 -185.5q0 -137 -93 -215q-90 -76 -236 -76q-151 0 -279 77q-31 18 -49 34z" />
<glyph unicode="t" horiz-adv-x="638" d="M37 848v129h160v266h149v-266h244v-129h-246v-625q0 -72 26.5 -95.5t78.5 -23.5t124 54l41 -119q-87 -62 -195 -62q-222 0 -222 230v641h-160z" />
<glyph unicode="u" horiz-adv-x="1046" d="M129 358v619h150v-627q0 -129 56 -187.5t147 -58.5q169 0 278 109v764h153v-977h-139l-10 76q-57 -45 -123 -72t-164 -27q-186 0 -267 94.5t-81 286.5z" />
<glyph unicode="v" horiz-adv-x="868" d="M0 977h162l266 -809l289 809h151l-358 -977h-172z" />
<glyph unicode="w" horiz-adv-x="1286" d="M0 977h162l203 -760l235 760h92l232 -758l202 758h160l-287 -977h-137l-219 709l-221 -709h-135z" />
<glyph unicode="x" horiz-adv-x="784" d="M0 0l311 500l-297 477h166l211 -354l211 354h162l-293 -471l313 -506h-166l-227 375l-223 -375h-168z" />
<glyph unicode="y" horiz-adv-x="927" d="M-8 -256q121 0 177 18q107 36 167 121q28 45 45 82l-365 1012h168l293 -850q149 332 281 850h160q-187 -714 -421 -1117q-92 -160 -257 -220q-93 -33 -232 -35z" />
<glyph unicode="z" horiz-adv-x="878" d="M78 0v154l553 694h-533v129h686v-162l-555 -686h570v-129h-721z" />
<glyph unicode="{" horiz-adv-x="487" d="M37 641v88q72 10 118 61.5t46 151.5v305q0 139 63.5 192.5t190.5 57.5l12 -104q-87 -4 -115 -45q-22 -33 -22 -131v-275q0 -111 -37 -169t-125 -89q88 -29 125 -87t37 -169v-276q0 -103 22.5 -131.5t49 -36t65.5 -9.5l-12 -102q-127 2 -190.5 56.5t-63.5 193.5v305 q0 100 -46 151.5t-118 61.5z" />
<glyph unicode="|" horiz-adv-x="411" d="M137 -152v1663h139v-1663h-139z" />
<glyph unicode="}" horiz-adv-x="487" d="M20 -25q88 4 114 47.5t26 129.5v276q0 111 34.5 169t122.5 87q-88 31 -122.5 89t-34.5 169v275q0 86 -25.5 129t-114.5 47l13 104q127 -4 190.5 -57.5t63.5 -192.5v-305q0 -100 45 -151.5t119 -61.5v-88q-74 -10 -119 -61.5t-45 -151.5v-305q0 -139 -63.5 -193.5 t-190.5 -56.5z" />
<glyph unicode="~" horiz-adv-x="866" d="M-4 1038q16 137 83.5 215t190.5 78q78 0 126 -28.5t84 -59.5t67 -51.5t84 -20.5q93 0 112 164h127q-6 -111 -56 -186.5t-106.5 -98t-113 -22.5t-101 27.5t-81.5 58.5t-72 54.5t-90 23.5t-88 -44t-41 -110h-125z" />
<glyph unicode="&#xa1;" horiz-adv-x="385" d="M88 891q0 51 28.5 80.5t75 29.5t76 -29.5t29.5 -80.5t-29.5 -82t-75.5 -31t-75 31t-29 82zM117 -387v948h147v-948h-147z" />
<glyph unicode="&#xa2;" d="M176 690q0 164 94 272q84 98 230 119v285h106v-285q130 -3 230 -92l-62 -108q-79 71 -168 71v-532q80 4 154 47l47 -119q-35 -25 -91.5 -43t-109.5 -20v-293h-106v297q-154 23 -239 131t-85 270zM326 693q0 -114 45 -176t129 -91v524q-78 -10 -126 -76.5t-48 -180.5z" />
<glyph unicode="&#xa3;" d="M90 514v139h133v308q0 205 94.5 311t272.5 106q131 0 214 -59t136 -164l-121 -94q-52 94 -103 129q-46 30 -128 39q-106 0 -158.5 -64.5t-52.5 -212.5v-299h424v-139h-424v-375h569v-139h-723v514h-133z" />
<glyph unicode="&#xa4;" horiz-adv-x="1200" d="M66 285l141 141q-96 126 -96 281q0 154 96 280l-141 141l94 95l143 -142q127 88 279 88q155 0 278 -90l144 144l94 -95l-142 -141q96 -121 97 -280q0 -160 -97 -281l142 -141l-94 -95l-142 144q-123 -90 -279.5 -90t-279.5 90l-143 -144zM246 707q0 -104 55 -193 q101 -152 298 -152q87 0 169 58q86 57 118 136t32 169.5t-58 171.5q-57 86 -134 120t-151.5 35t-139 -34t-107.5 -87q-91 -110 -82 -224z" />
<glyph unicode="&#xa5;" d="M31 1350h178l315 -553l330 553h170l-281 -463h131v-139h-215l-63 -107v-57h270v-140h-270v-444h-156v444h-278v140h278v55l-63 109h-215v139h135z" />
<glyph unicode="&#xa6;" horiz-adv-x="372" d="M117 -152v564h139v-564h-139zM117 946v565h139v-565h-139z" />
<glyph unicode="&#xa7;" horiz-adv-x="819" d="M100 575q0 160 149 243q44 24 91 36q-37 33 -68.5 61.5t-53.5 62.5q-50 75 -50 179.5t79 170t189.5 65.5t176 -40t106.5 -85l-76 -99q-84 105 -197 105q-147 0 -147 -125q0 -61 53.5 -120.5t136.5 -134t126.5 -118t70.5 -81.5q49 -69 49 -167q0 -177 -205 -272 q74 -55 120 -114.5t46 -140.5t-25.5 -133t-67.5 -88q-87 -75 -200 -75q-182 0 -294 107l57 114q91 -100 215 -100q82 0 129 39t47 106q0 68 -53 129t-170 141.5t-175.5 153t-58.5 180.5zM240 582q0 -82 52 -135.5t146 -122.5q74 29 118 80.5t44 102t-9 78t-29 55.5 q-24 32 -140 134q-80 -14 -131 -62t-51 -130z" />
<glyph unicode="&#xa8;" horiz-adv-x="860" d="M156 1308q0 48 29.5 74.5t70.5 26.5t69.5 -26.5t28.5 -74.5t-28.5 -74t-69.5 -26t-70.5 26t-29.5 74zM506 1308q0 48 29.5 74.5t70.5 26.5t70 -26.5t29 -74.5t-29 -74t-70 -26t-70.5 26t-29.5 74z" />
<glyph unicode="&#xa9;" horiz-adv-x="1589" d="M92 608q0 310 177 524q197 238 528 238q174 0 305 -65.5t219 -173t132 -244t44 -280.5t-44 -281.5t-132 -245t-220 -173t-307 -65.5t-306.5 65.5t-219.5 172.5q-176 216 -176 528zM219 608q0 -261 147 -445q160 -202 431 -202q268 0 429 202q144 181 144 445 q0 263 -144 444q-161 201 -429 201q-143 0 -252 -55t-181 -146q-145 -185 -145 -444zM422 604q0 234 110 360q100 113 271 113q196 0 293 -174l-97 -61q-31 57 -76.5 91t-123.5 34q-111 0 -179.5 -91.5t-68.5 -268.5t72.5 -267t183.5 -90t199 129l94 -66 q-104 -172 -299 -172q-264 0 -349 253q-30 87 -30 210z" />
<glyph unicode="&#xaa;" horiz-adv-x="665" d="M67 966q-1 95 44 147t109 82q112 52 253 46q0 86 -33.5 122t-97.5 36q-100 0 -186 -80l-50 94q110 94 236.5 94t191 -62.5t64.5 -209.5v-471h-115l-4 49q-86 -68 -174 -68q-97 0 -163 59q-74 67 -75 162zM193 979q0 -65 40.5 -93t83.5 -28q82 0 156 64v211 q-135 0 -207.5 -44.5t-72.5 -109.5z" />
<glyph unicode="&#xab;" horiz-adv-x="956" d="M29 512l379 418l100 -80l-283 -328l310 -321l-93 -90zM395 512l389 418l99 -76l-281 -332l307 -323l-90 -88z" />
<glyph unicode="&#xac;" d="M55 907v144h918v-752h-139v608h-779z" />
<glyph unicode="&#xad;" horiz-adv-x="567" d="M84 461v145h401v-145h-401z" />
<glyph unicode="&#xae;" horiz-adv-x="1589" d="M92 608q0 310 177 524q197 238 528 238q174 0 305 -65.5t219 -173t132 -244t44 -280.5t-44 -281.5t-132 -245t-220 -173t-307 -65.5t-306.5 65.5t-219.5 172.5q-176 216 -176 528zM219 608q0 -261 147 -445q160 -202 431 -202q268 0 429 202q144 181 144 445 q0 263 -144 444q-161 201 -429 201q-143 0 -252 -55t-181 -146q-145 -185 -145 -444zM510 164v903h293q154 0 226.5 -68.5t72.5 -183.5t-61.5 -175t-153.5 -79l243 -397h-141l-239 387h-117v-387h-123zM633 662h164q176 -1 176 155q0 141 -168 141h-172v-296z" />
<glyph unicode="&#xaf;" horiz-adv-x="860" d="M143 1243v127h574v-127h-574z" />
<glyph unicode="&#xb0;" horiz-adv-x="706" d="M78 1071q0 121 81 206q85 89 195 89q115 0 195 -87q80 -86 80 -209q0 -60 -21.5 -113.5t-58.5 -93.5q-80 -87 -195 -87q-112 0 -195 87q-81 85 -81 208zM195 1088.5q0 -54.5 13 -85t34 -53.5q47 -51 115.5 -51t112.5 52t44 120t-44 120t-115 52t-115.5 -50t-44.5 -104.5z " />
<glyph unicode="&#xb1;" d="M59 0v137h932v-137h-932zM70 768v143h391v449h137v-449h391v-143h-391v-451h-137v451h-391z" />
<glyph unicode="&#xb2;" horiz-adv-x="583" d="M63 1280q104 98 217 98t168.5 -51t55.5 -124t-29 -124t-94 -104l-105 -86q-43 -35 -52 -54.5t-9 -39.5h301v-107h-436v60q0 53 15.5 95t64.5 83l94 82q80 72 96 94q25 36 25 80.5t-26.5 68t-69.5 23.5q-82 0 -164 -82z" />
<glyph unicode="&#xb3;" horiz-adv-x="583" d="M70 754l43 94q78 -66 172 -66q53 0 87 29t34 82q0 123 -160 123q-39 0 -76 -6v82q31 45 79 95t91 79h-240v104h375v-115q-125 -83 -180 -155q111 0 168 -57.5t57 -150.5t-68.5 -152.5t-150.5 -59.5q-155 0 -231 74z" />
<glyph unicode="&#xb4;" horiz-adv-x="860" d="M217 1190l326 285l100 -107l-352 -254z" />
<glyph unicode="&#xb5;" horiz-adv-x="1116" d="M158 -387v1364h149v-623q0 -135 58.5 -192.5t160 -57.5t160.5 38t78.5 79t21.5 80t2 74v602h150v-735q0 -70 12.5 -103t47.5 -33t69 11l18 -119q-48 -21 -107 -21q-130 0 -169 121q-59 -63 -122.5 -92t-162.5 -29q-150 0 -225 95v-459h-141z" />
<glyph unicode="&#xb6;" horiz-adv-x="985" d="M68 965q0 166 110 283.5t271 117.5h139v-1663h-139v862q-155 0 -270 117q-111 113 -111 283zM717 -297v1663h139v-1663h-139z" />
<glyph unicode="&#xb7;" horiz-adv-x="561" d="M172 754q0 53 30.5 84.5t79 31.5t78 -31.5t29.5 -84.5t-29.5 -84t-77.5 -31t-79 30.5t-31 84.5z" />
<glyph unicode="&#xb8;" horiz-adv-x="860" d="M266 -356l99 266h159l-139 -266h-119z" />
<glyph unicode="&#xb9;" horiz-adv-x="583" d="M96 1255l193 115h96v-680h-119v537l-119 -70z" />
<glyph unicode="&#xba;" horiz-adv-x="780" d="M68 1139q0 157 78 260q90 119 243 119q155 0 243 -120q81 -111 81 -263q0 -151 -81 -261q-88 -120 -243 -120q-152 0 -241 122q-80 111 -80 263zM193 1139q0 -114 49 -191q52 -84 147 -84q94 0 149 84q50 77 50 188q0 52 -12.5 101t-37.5 87q-56 83 -149 83 q-94 0 -147 -83q-49 -75 -49 -185z" />
<glyph unicode="&#xbb;" horiz-adv-x="956" d="M47 199l307 323l-280 332l98 76l389 -418l-424 -401zM422 201l309 321l-282 328l100 80l379 -418l-414 -401z" />
<glyph unicode="&#xbc;" horiz-adv-x="1439" d="M51 57l1241 1315l86 -94l-1253 -1311zM96 1255l193 115h96v-680h-119v537l-119 -70zM803 137v96l333 439h95v-445h79v-90h-79v-137h-119v137h-309zM909 227h203v269z" />
<glyph unicode="&#xbd;" horiz-adv-x="1439" d="M-8 57l1241 1315l86 -94l-1253 -1311zM88 1255l193 115h96v-680h-119v537l-119 -70zM858 604q104 98 217 98t168.5 -51t55.5 -124t-29 -124t-94 -104l-105 -86q-43 -35 -52 -54.5t-9 -39.5h301v-107h-436v60q0 53 15.5 95t64.5 83l94 82q80 72 96 94q25 36 25 80.5 t-26.5 68t-69.5 23.5q-82 0 -164 -82z" />
<glyph unicode="&#xbe;" horiz-adv-x="1439" d="M107 754l43 94q78 -66 172 -66q53 0 87 29t34 82q0 123 -160 123q-39 0 -76 -6v82q31 45 79 95t91 79h-240v104h375v-115q-125 -83 -180 -155q111 0 168 -57.5t57 -150.5t-68.5 -152.5t-150.5 -59.5q-155 0 -231 74zM123 57l1241 1315l86 -94l-1253 -1311zM871 137v96 l333 439h95v-445h79v-90h-79v-137h-119v137h-309zM977 227h203v269z" />
<glyph unicode="&#xbf;" horiz-adv-x="720" d="M8 -59q0 104 41 175.5t97.5 133t85 97.5t44.5 67q29 52 29 114v74h144v-86q0 -96 -45.5 -165.5t-106 -136.5t-98 -124t-37.5 -152t53 -150.5t146.5 -55.5t159 54t116.5 132l102 -78q-139 -239 -379 -239q-174 0 -263 93t-89 247zM272 891q0 51 29 80.5t75 29.5 t75.5 -29.5t29.5 -80.5t-29.5 -82t-75.5 -31t-75 31t-29 82z" />
<glyph unicode="&#xc0;" horiz-adv-x="1105" d="M0 0l485 1366h127l494 -1366h-170l-154 422h-475l-143 -422h-164zM323 1708l100 107l326 -285l-72 -76zM358 567h373l-188 566z" />
<glyph unicode="&#xc1;" horiz-adv-x="1105" d="M0 0l485 1366h127l494 -1366h-170l-154 422h-475l-143 -422h-164zM356 1530l326 285l100 -107l-352 -254zM358 567h373l-188 566z" />
<glyph unicode="&#xc2;" horiz-adv-x="1105" d="M0 0l485 1366h127l494 -1366h-170l-154 422h-475l-143 -422h-164zM256 1516l246 294h94l244 -294l-84 -62l-207 229l-205 -229zM358 567h373l-188 566z" />
<glyph unicode="&#xc3;" horiz-adv-x="1105" d="M0 0l485 1366h127l494 -1366h-170l-154 422h-475l-143 -422h-164zM205 1552q29 92 81 147.5t107 55.5q85 0 159.5 -58.5t117.5 -58.5q63 0 115 121l94 -49q-31 -94 -83 -147.5t-120 -53.5q-60 0 -142.5 58.5t-119.5 58.5t-61.5 -27.5t-53.5 -93.5zM358 567h373l-188 566z " />
<glyph unicode="&#xc4;" horiz-adv-x="1105" d="M0 0l485 1366h127l494 -1366h-170l-154 422h-475l-143 -422h-164zM275 1646q0 48 29.5 74.5t70.5 26.5t69.5 -26.5t28.5 -74.5t-28.5 -74t-69.5 -26t-70.5 26t-29.5 74zM358 567h373l-188 566zM625 1646q0 48 29.5 74.5t70.5 26.5t70 -26.5t29 -74.5t-29 -74t-70 -26 t-70.5 26t-29.5 74z" />
<glyph unicode="&#xc5;" horiz-adv-x="1105" d="M0 0l485 1366h127l494 -1366h-170l-154 422h-475l-143 -422h-164zM352 1636q0 83 48 142q53 63 143 63q87 0 143 -63q49 -56 49 -141q0 -38 -12 -74.5t-37 -65.5q-54 -63 -143 -63q-134 0 -179 128q-12 35 -12 74zM358 567h373l-188 566zM438 1637q0 -46 26.5 -83.5 t78.5 -37.5q51 0 77.5 37.5t26.5 83.5t-26.5 84t-77.5 38t-78 -38t-27 -84z" />
<glyph unicode="&#xc6;" horiz-adv-x="1673" d="M0 0l731 1366h858v-141h-602v-439h430v-141h-430v-504h647v-141h-803v422h-432l-225 -422h-174zM477 567h354v672z" />
<glyph unicode="&#xc7;" horiz-adv-x="1107" d="M96 678q0 358 167 549q145 166 366 166q141 0 241.5 -59.5t176.5 -188.5l-115 -94q-69 100 -113 130q-90 62 -194 62q-172 0 -268.5 -147.5t-96.5 -419.5q0 -258 110 -410q102 -143 269 -143q119 0 192.5 37t141.5 102l57 -147q-91 -91 -262 -129q-61 -13 -153.5 -13 t-190.5 40t-171 125q-157 183 -157 540zM456 -356l99 266h159l-139 -266h-119z" />
<glyph unicode="&#xc8;" horiz-adv-x="999" d="M158 0v1366h757v-141h-602v-439h430v-141h-432v-504h650v-141h-803zM309 1708l100 107l326 -285l-72 -76z" />
<glyph unicode="&#xc9;" horiz-adv-x="999" d="M158 0v1366h757v-141h-602v-439h430v-141h-432v-504h650v-141h-803zM362 1530l326 285l100 -107l-352 -254z" />
<glyph unicode="&#xca;" horiz-adv-x="999" d="M158 0v1366h757v-141h-602v-439h430v-141h-432v-504h650v-141h-803zM260 1516l246 294h94l244 -294l-84 -62l-207 229l-205 -229z" />
<glyph unicode="&#xcb;" horiz-adv-x="999" d="M158 0v1366h757v-141h-602v-439h430v-141h-432v-504h650v-141h-803zM269 1648q0 48 29.5 74.5t70.5 26.5t69.5 -26.5t28.5 -74.5t-28.5 -74t-69.5 -26t-70.5 26t-29.5 74zM619 1648q0 48 29.5 74.5t70.5 26.5t70 -26.5t29 -74.5t-29 -74t-70 -26t-70.5 26t-29.5 74z" />
<glyph unicode="&#xcc;" horiz-adv-x="471" d="M14 1708l100 107l326 -285l-72 -76zM158 0v1366h155v-1366h-155z" />
<glyph unicode="&#xcd;" horiz-adv-x="471" d="M51 1530l326 285l100 -107l-352 -254zM158 0v1366h155v-1366h-155z" />
<glyph unicode="&#xce;" horiz-adv-x="471" d="M-33 1516l246 294h94l244 -294l-84 -62l-207 229l-205 -229zM158 0v1366h155v-1366h-155z" />
<glyph unicode="&#xcf;" horiz-adv-x="471" d="M-20 1648q0 48 29.5 74.5t70.5 26.5t69.5 -26.5t28.5 -74.5t-28.5 -74t-69.5 -26t-70.5 26t-29.5 74zM158 0v1366h155v-1366h-155zM330 1648q0 48 29.5 74.5t70.5 26.5t70 -26.5t29 -74.5t-29 -74t-70 -26t-70.5 26t-29.5 74z" />
<glyph unicode="&#xd0;" horiz-adv-x="1212" d="M-2 647v127h160v592h336q374 0 536 -282q90 -155 90 -395q0 -130 -30.5 -243.5t-85.5 -197.5q-142 -214 -400 -242q-61 -6 -110 -6h-336v647h-160zM313 141h160q121 0 189.5 29t121 71t90 104.5t60 148t22.5 232t-52 255.5q-116 244 -421 244h-170v-451h312v-127h-312 v-506z" />
<glyph unicode="&#xd1;" horiz-adv-x="1280" d="M158 0v1366h157l654 -1018v1018h153v-1366h-114l-697 1083v-1083h-153zM327 1552q29 92 81 147.5t107 55.5q85 0 159.5 -58.5t117.5 -58.5q63 0 115 121l94 -49q-31 -94 -83 -147.5t-120 -53.5q-60 0 -142.5 58.5t-119.5 58.5t-61.5 -27.5t-53.5 -93.5z" />
<glyph unicode="&#xd2;" horiz-adv-x="1286" d="M96 684q0 290 130 488q147 221 417 221t417 -221q130 -198 130 -488q0 -293 -130 -488q-149 -223 -417 -223t-417 223q-130 195 -130 488zM258 684q0 -229 94 -389q103 -176 291 -176q186 0 292 176q93 155 93 388q0 105 -22.5 206.5t-69.5 181.5q-103 176 -293 176 t-293 -176q-92 -157 -92 -387zM430 1708l100 107l326 -285l-72 -76z" />
<glyph unicode="&#xd3;" horiz-adv-x="1286" d="M96 684q0 290 130 488q147 221 417 221t417 -221q130 -198 130 -488q0 -293 -130 -488q-149 -223 -417 -223t-417 223q-130 195 -130 488zM258 684q0 -229 94 -389q103 -176 291 -176q186 0 292 176q93 155 93 388q0 105 -22.5 206.5t-69.5 181.5q-103 176 -293 176 t-293 -176q-92 -157 -92 -387zM446 1530l326 285l100 -107l-352 -254z" />
<glyph unicode="&#xd4;" horiz-adv-x="1286" d="M96 684q0 290 130 488q147 221 417 221t417 -221q130 -198 130 -488q0 -293 -130 -488q-149 -223 -417 -223t-417 223q-130 195 -130 488zM258 684q0 -229 94 -389q103 -176 291 -176q186 0 292 176q93 155 93 388q0 105 -22.5 206.5t-69.5 181.5q-103 176 -293 176 t-293 -176q-92 -157 -92 -387zM352 1516l246 294h94l244 -294l-84 -62l-207 229l-205 -229z" />
<glyph unicode="&#xd5;" horiz-adv-x="1286" d="M96 684q0 290 130 488q147 221 417 221t417 -221q130 -198 130 -488q0 -293 -130 -488q-149 -223 -417 -223t-417 223q-130 195 -130 488zM258 684q0 -229 94 -389q103 -176 291 -176q186 0 292 176q93 155 93 388q0 105 -22.5 206.5t-69.5 181.5q-103 176 -293 176 t-293 -176q-92 -157 -92 -387zM299 1552q29 92 81 147.5t107 55.5q85 0 159.5 -58.5t117.5 -58.5q63 0 115 121l94 -49q-31 -94 -83 -147.5t-120 -53.5q-60 0 -142.5 58.5t-119.5 58.5t-61.5 -27.5t-53.5 -93.5z" />
<glyph unicode="&#xd6;" horiz-adv-x="1286" d="M96 684q0 290 130 488q147 221 417 221t417 -221q130 -198 130 -488q0 -293 -130 -488q-149 -223 -417 -223t-417 223q-130 195 -130 488zM258 684q0 -229 94 -389q103 -176 291 -176q186 0 292 176q93 155 93 388q0 105 -22.5 206.5t-69.5 181.5q-103 176 -293 176 t-293 -176q-92 -157 -92 -387zM371 1648q0 48 29.5 74.5t70.5 26.5t69.5 -26.5t28.5 -74.5t-28.5 -74t-69.5 -26t-70.5 26t-29.5 74zM721 1648q0 48 29.5 74.5t70.5 26.5t70 -26.5t29 -74.5t-29 -74t-70 -26t-70.5 26t-29.5 74z" />
<glyph unicode="&#xd7;" d="M162 408l262 276l-262 274l98 111l266 -278l267 278l96 -111l-262 -274l262 -276l-94 -113l-269 283l-268 -283z" />
<glyph unicode="&#xd8;" horiz-adv-x="1286" d="M96 684q0 290 130 488q147 221 417 221q218 0 363 -154l120 160l107 -94l-141 -187q98 -188 98 -434q0 -293 -130 -488q-149 -223 -417 -223q-186 0 -326 117l-104 -139l-109 98l117 154q-125 198 -125 481zM258 705q0 -209 70 -363l581 770q-101 135 -266 135 q-190 0 -293 -176q-92 -157 -92 -366zM412 217q94 -98 231 -98q186 0 292 176q93 155 93 349t-45 327z" />
<glyph unicode="&#xd9;" horiz-adv-x="1259" d="M150 457v909h155v-879q0 -174 85 -271t239 -97t239.5 94t85.5 274v879h156v-909q0 -229 -148 -361q-136 -123 -337 -123q-210 0 -339 123q-136 130 -136 361zM373 1708l100 107l326 -285l-72 -76z" />
<glyph unicode="&#xda;" horiz-adv-x="1259" d="M150 457v909h155v-879q0 -174 85 -271t239 -97t239.5 94t85.5 274v879h156v-909q0 -229 -148 -361q-136 -123 -337 -123q-210 0 -339 123q-136 130 -136 361zM450 1530l326 285l100 -107l-352 -254z" />
<glyph unicode="&#xdb;" horiz-adv-x="1259" d="M150 457v909h155v-879q0 -174 85 -271t239 -97t239.5 94t85.5 274v879h156v-909q0 -229 -148 -361q-136 -123 -337 -123q-210 0 -339 123q-136 130 -136 361zM352 1516l246 294h94l244 -294l-84 -62l-207 229l-205 -229z" />
<glyph unicode="&#xdc;" horiz-adv-x="1259" d="M150 457v909h155v-879q0 -174 85 -271t239 -97t239.5 94t85.5 274v879h156v-909q0 -229 -148 -361q-136 -123 -337 -123q-210 0 -339 123q-136 130 -136 361zM367 1648q0 48 29.5 74.5t70.5 26.5t69.5 -26.5t28.5 -74.5t-28.5 -74t-69.5 -26t-70.5 26t-29.5 74zM717 1648 q0 48 29.5 74.5t70.5 26.5t70 -26.5t29 -74.5t-29 -74t-70 -26t-70.5 26t-29.5 74z" />
<glyph unicode="&#xdd;" horiz-adv-x="1056" d="M0 1366h176l348 -553l363 553h170l-459 -709v-657h-156v655zM354 1530l326 285l100 -107l-352 -254z" />
<glyph unicode="&#xde;" horiz-adv-x="1038" d="M158 0v1366h155v-242h234q442 0 442 -411q0 -199 -114.5 -302.5t-331.5 -103.5h-230v-307h-155zM313 451h240q119 0 192.5 62t73.5 202q0 270 -268 270h-238v-534z" />
<glyph unicode="&#xdf;" horiz-adv-x="1083" d="M39 848v129h135q4 205 97.5 310.5t263.5 105.5t265 -100.5t95 -274.5v-150h-150q-80 0 -118.5 -33.5t-38.5 -94.5t49 -98.5t161 -78.5q224 -83 224 -295q4 -143 -104 -223q-93 -68 -216 -68q-59 0 -110 13.5t-88 29.5q-55 25 -90 60l53 127q45 -41 101.5 -72t137.5 -31 t127 37t46 107t-42 121t-159 95t-175.5 106.5t-58.5 172.5q0 124 108 194q86 56 202 56q0 137 -59.5 206t-156.5 69t-154.5 -66.5t-57.5 -224.5v-977h-152v848h-135z" />
<glyph unicode="&#xe0;" horiz-adv-x="915" d="M74 283q0 187 188 279q150 73 375 73v12q0 230 -193 230q-135 0 -264 -103l-49 115q53 41 131 76.5t214.5 35.5t223 -83.5t86.5 -280.5v-637h-137l-6 84q-103 -107 -252 -107q-128 0 -219 77q-98 83 -98 229zM217 1368l100 107l326 -285l-72 -76zM225 294q0 -60 17.5 -93 t43.5 -55q50 -40 124 -40q111 0 227 101v303q-177 -5 -254.5 -35.5t-117.5 -75.5t-40 -105z" />
<glyph unicode="&#xe1;" horiz-adv-x="915" d="M74 283q0 187 188 279q150 73 375 73v12q0 230 -193 230q-135 0 -264 -103l-49 115q53 41 131 76.5t214.5 35.5t223 -83.5t86.5 -280.5v-637h-137l-6 84q-103 -107 -252 -107q-128 0 -219 77q-98 83 -98 229zM225 294q0 -60 17.5 -93t43.5 -55q50 -40 124 -40 q111 0 227 101v303q-177 -5 -254.5 -35.5t-117.5 -75.5t-40 -105zM287 1190l326 285l100 -107l-352 -254z" />
<glyph unicode="&#xe2;" horiz-adv-x="915" d="M74 283q0 187 188 279q150 73 375 73v12q0 230 -193 230q-135 0 -264 -103l-49 115q53 41 131 76.5t214.5 35.5t223 -83.5t86.5 -280.5v-637h-137l-6 84q-103 -107 -252 -107q-128 0 -219 77q-98 83 -98 229zM162 1176l246 294h94l244 -294l-84 -62l-207 229l-205 -229z M225 294q0 -60 17.5 -93t43.5 -55q50 -40 124 -40q111 0 227 101v303q-177 -5 -254.5 -35.5t-117.5 -75.5t-40 -105z" />
<glyph unicode="&#xe3;" horiz-adv-x="915" d="M74 283q0 187 188 279q150 73 375 73v12q0 230 -193 230q-135 0 -264 -103l-49 115q53 41 131 76.5t214.5 35.5t223 -83.5t86.5 -280.5v-637h-137l-6 84q-103 -107 -252 -107q-128 0 -219 77q-98 83 -98 229zM125 1212q29 92 81 147.5t107 55.5q85 0 159.5 -58.5 t117.5 -58.5q63 0 115 121l94 -49q-31 -94 -83 -147.5t-120 -53.5q-60 0 -142.5 58.5t-119.5 58.5t-61.5 -27.5t-53.5 -93.5zM225 294q0 -60 17.5 -93t43.5 -55q50 -40 124 -40q111 0 227 101v303q-177 -5 -254.5 -35.5t-117.5 -75.5t-40 -105z" />
<glyph unicode="&#xe4;" horiz-adv-x="915" d="M74 283q0 187 188 279q150 73 375 73v12q0 230 -193 230q-135 0 -264 -103l-49 115q53 41 131 76.5t214.5 35.5t223 -83.5t86.5 -280.5v-637h-137l-6 84q-103 -107 -252 -107q-128 0 -219 77q-98 83 -98 229zM185 1308q0 48 29.5 74.5t70.5 26.5t69.5 -26.5t28.5 -74.5 t-28.5 -74t-69.5 -26t-70.5 26t-29.5 74zM225 294q0 -60 17.5 -93t43.5 -55q50 -40 124 -40q111 0 227 101v303q-177 -5 -254.5 -35.5t-117.5 -75.5t-40 -105zM535 1308q0 48 29.5 74.5t70.5 26.5t70 -26.5t29 -74.5t-29 -74t-70 -26t-70.5 26t-29.5 74z" />
<glyph unicode="&#xe5;" horiz-adv-x="915" d="M74 283q0 187 188 279q150 73 375 73v12q0 230 -193 230q-135 0 -264 -103l-49 115q53 41 131 76.5t214.5 35.5t223 -83.5t86.5 -280.5v-637h-137l-6 84q-103 -107 -252 -107q-128 0 -219 77q-98 83 -98 229zM225 294q0 -60 17.5 -93t43.5 -55q50 -40 124 -40 q111 0 227 101v303q-177 -5 -254.5 -35.5t-117.5 -75.5t-40 -105zM272 1296q0 83 48 142q53 63 143 63q87 0 143 -63q49 -56 49 -141q0 -38 -12 -74.5t-37 -65.5q-54 -63 -143 -63q-134 0 -179 128q-12 35 -12 74zM358 1297q0 -46 26.5 -83.5t78.5 -37.5q51 0 77.5 37.5 t26.5 83.5t-26.5 84t-77.5 38t-78 -38t-27 -84z" />
<glyph unicode="&#xe6;" horiz-adv-x="1507" d="M74 283q0 180 158 268q131 72 331 72h74v30q0 117 -52.5 170.5t-140.5 53.5q-135 0 -264 -103l-49 115q53 41 131 76.5t195 35.5q211 0 280 -161q102 161 314 161q189 0 288 -139q93 -132 93 -364h-660q0 -184 80 -289t231 -105q90 0 151.5 31t117.5 78l39 -129 q-39 -35 -120 -71t-192 -36q-253 0 -360 173q-59 -114 -198 -158q-50 -15 -115.5 -15t-127 20.5t-106.5 59.5q-98 85 -98 226zM225 271.5q0 -76.5 48.5 -121t148 -44.5t157.5 51.5t58 137.5v205h-57q-250 0 -326 -110q-29 -42 -29 -118.5zM786 623h476q-4 123 -70 191 q-61 63 -153.5 63t-160 -58.5t-92.5 -195.5z" />
<glyph unicode="&#xe7;" horiz-adv-x="921" d="M90 485q0 258 134 397q116 119 288 119q138 0 239 -73q67 -49 107 -129l-104 -78q-45 70 -97.5 111.5t-125 41.5t-123 -25.5t-88.5 -74.5q-82 -108 -82 -285t87 -284q82 -101 205 -101q160 0 269 105l43 -129q-53 -47 -138.5 -75t-175.5 -28t-167.5 31t-136.5 94 q-134 143 -134 383zM344 -356l99 266h159l-139 -266h-119z" />
<glyph unicode="&#xe8;" horiz-adv-x="989" d="M90 494q0 229 114 370q112 137 300 137q200 0 307 -139q102 -134 102 -364h-675q0 -184 79.5 -289t233 -105t283.5 109l38 -129q-64 -64 -221 -96q-51 -11 -106 -11q-209 0 -332 132.5t-123 384.5zM252 623h491q-4 120 -79 191q-65 63 -158.5 63t-161.5 -58.5t-92 -195.5 zM270 1368l100 107l326 -285l-72 -76z" />
<glyph unicode="&#xe9;" horiz-adv-x="989" d="M90 494q0 229 114 370q112 137 300 137q200 0 307 -139q102 -134 102 -364h-675q0 -184 79.5 -289t233 -105t283.5 109l38 -129q-64 -64 -221 -96q-51 -11 -106 -11q-209 0 -332 132.5t-123 384.5zM252 623h491q-4 120 -79 191q-65 63 -158.5 63t-161.5 -58.5t-92 -195.5 zM311 1190l326 285l100 -107l-352 -254z" />
<glyph unicode="&#xea;" horiz-adv-x="989" d="M90 494q0 229 114 370q112 137 300 137q200 0 307 -139q102 -134 102 -364h-675q0 -184 79.5 -289t233 -105t283.5 109l38 -129q-64 -64 -221 -96q-51 -11 -106 -11q-209 0 -332 132.5t-123 384.5zM221 1176l246 294h94l244 -294l-84 -62l-207 229l-205 -229zM252 623 h491q-4 120 -79 191q-65 63 -158.5 63t-161.5 -58.5t-92 -195.5z" />
<glyph unicode="&#xeb;" horiz-adv-x="989" d="M90 494q0 229 114 370q112 137 300 137q200 0 307 -139q102 -134 102 -364h-675q0 -184 79.5 -289t233 -105t283.5 109l38 -129q-64 -64 -221 -96q-51 -11 -106 -11q-209 0 -332 132.5t-123 384.5zM238 1308q0 48 29.5 74.5t70.5 26.5t69.5 -26.5t28.5 -74.5t-28.5 -74 t-69.5 -26t-70.5 26t-29.5 74zM252 623h491q-4 120 -79 191q-65 63 -158.5 63t-161.5 -58.5t-92 -195.5zM588 1308q0 48 29.5 74.5t70.5 26.5t70 -26.5t29 -74.5t-29 -74t-70 -26t-70.5 26t-29.5 74z" />
<glyph unicode="&#xec;" horiz-adv-x="417" d="M2 1368l100 107l326 -285l-72 -76zM135 0v977h150v-977h-150z" />
<glyph unicode="&#xed;" horiz-adv-x="417" d="M24 1190l326 285l100 -107l-352 -254zM135 0v977h150v-977h-150z" />
<glyph unicode="&#xee;" horiz-adv-x="417" d="M-70 1176l246 294h94l244 -294l-84 -62l-207 229l-205 -229zM135 0v977h150v-977h-150z" />
<glyph unicode="&#xef;" horiz-adv-x="417" d="M-51 1308q0 48 29.5 74.5t70.5 26.5t69.5 -26.5t28.5 -74.5t-28.5 -74t-69.5 -26t-70.5 26t-29.5 74zM135 0v977h150v-977h-150zM299 1308q0 48 29.5 74.5t70.5 26.5t70 -26.5t29 -74.5t-29 -74t-70 -26t-70.5 26t-29.5 74z" />
<glyph unicode="&#xf0;" horiz-adv-x="1044" d="M90 494q0 233 121 372q117 135 313 135q76 0 124 -17t83 -34q-50 126 -162 230l-237 -109l-72 78l223 102q-82 59 -151 90l123 64q105 -58 153 -96l215 100l72 -78l-205 -94q264 -264 264 -690q0 -283 -128 -435q-114 -135 -300 -135q-187 0 -309 135q-127 141 -127 382z M240 493q0 -185 81.5 -287t204.5 -102t199 103q82 111 82 297.5t-39 300.5q-125 72 -248 72t-201.5 -99.5t-78.5 -284.5z" />
<glyph unicode="&#xf1;" horiz-adv-x="1052" d="M135 0v977h137l11 -78q129 102 307 102t256 -97t78 -296v-608h-150v612q0 123 -52 192.5t-177.5 69.5t-259.5 -108v-766h-150zM205 1212q29 92 81 147.5t107 55.5q85 0 159.5 -58.5t117.5 -58.5q63 0 115 121l94 -49q-31 -94 -83 -147.5t-120 -53.5q-60 0 -142.5 58.5 t-119.5 58.5t-61.5 -27.5t-53.5 -93.5z" />
<glyph unicode="&#xf2;" horiz-adv-x="1042" d="M90 494q0 207 106 350q118 157 326 157q106 0 188.5 -44t135.5 -115q108 -146 108 -353q0 -206 -108 -351q-119 -161 -324 -161q-204 0 -324 161q-108 148 -108 356zM238 494q0 -255 160 -356q53 -34 124 -34q133 0 214 122q71 108 71 266q0 157 -71 264 q-80 121 -214 121q-138 0 -215 -121q-69 -107 -69 -262zM266 1368l100 107l326 -285l-72 -76z" />
<glyph unicode="&#xf3;" horiz-adv-x="1042" d="M90 494q0 207 106 350q118 157 326 157q106 0 188.5 -44t135.5 -115q108 -146 108 -353q0 -206 -108 -351q-119 -161 -324 -161q-204 0 -324 161q-108 148 -108 356zM238 494q0 -255 160 -356q53 -34 124 -34q133 0 214 122q71 108 71 266q0 157 -71 264 q-80 121 -214 121q-138 0 -215 -121q-69 -107 -69 -262zM321 1190l326 285l100 -107l-352 -254z" />
<glyph unicode="&#xf4;" horiz-adv-x="1042" d="M90 494q0 207 106 350q118 157 326 157q106 0 188.5 -44t135.5 -115q108 -146 108 -353q0 -206 -108 -351q-119 -161 -324 -161q-204 0 -324 161q-108 148 -108 356zM217 1176l246 294h94l244 -294l-84 -62l-207 229l-205 -229zM238 494q0 -255 160 -356q53 -34 124 -34 q133 0 214 122q71 108 71 266q0 157 -71 264q-80 121 -214 121q-138 0 -215 -121q-69 -107 -69 -262z" />
<glyph unicode="&#xf5;" horiz-adv-x="1042" d="M90 494q0 207 106 350q118 157 326 157q106 0 188.5 -44t135.5 -115q108 -146 108 -353q0 -206 -108 -351q-119 -161 -324 -161q-204 0 -324 161q-108 148 -108 356zM178 1212q29 92 81 147.5t107 55.5q85 0 159.5 -58.5t117.5 -58.5q63 0 115 121l94 -49 q-31 -94 -83 -147.5t-120 -53.5q-60 0 -142.5 58.5t-119.5 58.5t-61.5 -27.5t-53.5 -93.5zM238 494q0 -255 160 -356q53 -34 124 -34q133 0 214 122q71 108 71 266q0 157 -71 264q-80 121 -214 121q-138 0 -215 -121q-69 -107 -69 -262z" />
<glyph unicode="&#xf6;" horiz-adv-x="1042" d="M90 494q0 207 106 350q118 157 326 157q106 0 188.5 -44t135.5 -115q108 -146 108 -353q0 -206 -108 -351q-119 -161 -324 -161q-204 0 -324 161q-108 148 -108 356zM238 494q0 -255 160 -356q53 -34 124 -34q133 0 214 122q71 108 71 266q0 157 -71 264 q-80 121 -214 121q-138 0 -215 -121q-69 -107 -69 -262zM254 1308q0 48 29.5 74.5t70.5 26.5t69.5 -26.5t28.5 -74.5t-28.5 -74t-69.5 -26t-70.5 26t-29.5 74zM604 1308q0 48 29.5 74.5t70.5 26.5t70 -26.5t29 -74.5t-29 -74t-70 -26t-70.5 26t-29.5 74z" />
<glyph unicode="&#xf7;" d="M66 608v144h919v-144h-919zM416 322q0 53 30.5 84.5t78.5 31.5t78 -31.5t30 -84.5t-30 -84t-78 -31t-78.5 30.5t-30.5 84.5zM416 1053q0 53 30.5 84.5t78.5 31.5t78 -31.5t30 -84.5t-30 -84t-78 -31t-78.5 30.5t-30.5 84.5z" />
<glyph unicode="&#xf8;" horiz-adv-x="1042" d="M90 494q0 207 106 350q118 157 326 157q96 0 180 -38l93 163l104 -65l-96 -170q151 -143 151 -402q0 -206 -108 -351q-119 -161 -324 -161q-113 0 -194 48l-95 -166l-104 71l96 176q-135 147 -135 388zM238 494q0 -150 61 -254l340 608q-53 29 -121 29t-122 -33t-89 -88 q-69 -107 -69 -262zM391 141q67 -37 135 -37t121 34t89 88q71 108 71 266q0 162 -74 268z" />
<glyph unicode="&#xf9;" horiz-adv-x="1046" d="M129 358v619h150v-627q0 -129 56 -187.5t147 -58.5q169 0 278 109v764h153v-977h-139l-10 76q-57 -45 -123 -72t-164 -27q-186 0 -267 94.5t-81 286.5zM264 1368l100 107l326 -285l-72 -76z" />
<glyph unicode="&#xfa;" horiz-adv-x="1046" d="M129 358v619h150v-627q0 -129 56 -187.5t147 -58.5q169 0 278 109v764h153v-977h-139l-10 76q-57 -45 -123 -72t-164 -27q-186 0 -267 94.5t-81 286.5zM350 1190l326 285l100 -107l-352 -254z" />
<glyph unicode="&#xfb;" horiz-adv-x="1046" d="M129 358v619h150v-627q0 -129 56 -187.5t147 -58.5q169 0 278 109v764h153v-977h-139l-10 76q-57 -45 -123 -72t-164 -27q-186 0 -267 94.5t-81 286.5zM237 1176l246 294h94l244 -294l-84 -62l-207 229l-205 -229z" />
<glyph unicode="&#xfc;" horiz-adv-x="1046" d="M129 358v619h150v-627q0 -129 56 -187.5t147 -58.5q169 0 278 109v764h153v-977h-139l-10 76q-57 -45 -123 -72t-164 -27q-186 0 -267 94.5t-81 286.5zM254 1308q0 48 29.5 74.5t70.5 26.5t69.5 -26.5t28.5 -74.5t-28.5 -74t-69.5 -26t-70.5 26t-29.5 74zM604 1308 q0 48 29.5 74.5t70.5 26.5t70 -26.5t29 -74.5t-29 -74t-70 -26t-70.5 26t-29.5 74z" />
<glyph unicode="&#xfd;" horiz-adv-x="927" d="M-8 -256q121 0 177 18q107 36 167 121q28 45 45 82l-365 1012h168l293 -850q149 332 281 850h160q-187 -714 -421 -1117q-92 -160 -257 -220q-93 -33 -232 -35zM305 1190l326 285l100 -107l-352 -254z" />
<glyph unicode="&#xfe;" horiz-adv-x="1021" d="M135 -387v1753h148v-459q116 94 270 94q196 0 293 -151q86 -134 86 -350q0 -234 -132 -380q-127 -143 -331 -143q-110 0 -182 33v-397h-152zM287 147q62 -43 144.5 -43t146 27t108.5 76q96 105 96 287q0 254 -141 346q-51 34 -127 34q-123 0 -227 -104v-623z" />
<glyph unicode="&#xff;" horiz-adv-x="927" d="M-8 -256q121 0 177 18q107 36 167 121q28 45 45 82l-365 1012h168l293 -850q149 332 281 850h160q-187 -714 -421 -1117q-92 -160 -257 -220q-93 -33 -232 -35zM215 1308q0 48 29.5 74.5t70.5 26.5t69.5 -26.5t28.5 -74.5t-28.5 -74t-69.5 -26t-70.5 26t-29.5 74z M565 1308q0 48 29.5 74.5t70.5 26.5t70 -26.5t29 -74.5t-29 -74t-70 -26t-70.5 26t-29.5 74z" />
<glyph unicode="&#x152;" horiz-adv-x="1730" d="M96 699.5q0 326.5 179.5 496.5t512.5 170h859v-141h-603v-439h431v-141h-431v-504h648v-141h-904q-327 0 -510 188q-182 185 -182 511.5zM258 689.5q0 -271.5 140.5 -410t396.5 -138.5h92v1084h-101q-254 0 -391 -132t-137 -403.5z" />
<glyph unicode="&#x153;" horiz-adv-x="1691" d="M90 494q0 207 106 350q118 157 326 157q127 0 214 -60t132 -159q103 219 338 219q199 0 308 -139q102 -133 102 -364h-676q0 -184 80 -289t234 -105t282 109l39 -129q-64 -64 -221 -96q-51 -11 -107 -11q-135 0 -234.5 58.5t-146.5 163.5q-111 -222 -344 -222 q-204 0 -324 161q-108 148 -108 356zM238 494q0 -255 160 -356q53 -34 124 -34q133 0 214 122q71 108 71 266q0 157 -71 264q-80 121 -214 121q-138 0 -215 -121q-69 -107 -69 -262zM954 623h492q-4 120 -79 191q-67 63 -160 63t-160.5 -58.5t-92.5 -195.5z" />
<glyph unicode="&#x178;" horiz-adv-x="1056" d="M0 1366h176l348 -553l363 553h170l-459 -709v-657h-156v655zM258 1648q0 48 29.5 74.5t70.5 26.5t69.5 -26.5t28.5 -74.5t-28.5 -74t-69.5 -26t-70.5 26t-29.5 74zM608 1648q0 48 29.5 74.5t70.5 26.5t70 -26.5t29 -74.5t-29 -74t-70 -26t-70.5 26t-29.5 74z" />
<glyph unicode="&#x2c6;" horiz-adv-x="860" d="M137 1176l246 294h94l244 -294l-84 -62l-207 229l-205 -229z" />
<glyph unicode="&#x2dc;" horiz-adv-x="860" d="M94 1212q29 92 81 147.5t107 55.5q85 0 159.5 -58.5t117.5 -58.5q63 0 115 121l94 -49q-31 -94 -83 -147.5t-120 -53.5q-60 0 -142.5 58.5t-119.5 58.5t-61.5 -27.5t-53.5 -93.5z" />
<glyph unicode="&#x2000;" horiz-adv-x="920" />
<glyph unicode="&#x2001;" horiz-adv-x="1841" />
<glyph unicode="&#x2002;" horiz-adv-x="920" />
<glyph unicode="&#x2003;" horiz-adv-x="1841" />
<glyph unicode="&#x2004;" horiz-adv-x="613" />
<glyph unicode="&#x2005;" horiz-adv-x="460" />
<glyph unicode="&#x2006;" horiz-adv-x="306" />
<glyph unicode="&#x2007;" horiz-adv-x="306" />
<glyph unicode="&#x2008;" horiz-adv-x="230" />
<glyph unicode="&#x2009;" horiz-adv-x="368" />
<glyph unicode="&#x200a;" horiz-adv-x="102" />
<glyph unicode="&#x2010;" horiz-adv-x="567" d="M84 461v145h401v-145h-401z" />
<glyph unicode="&#x2011;" horiz-adv-x="567" d="M84 461v145h401v-145h-401z" />
<glyph unicode="&#x2012;" horiz-adv-x="567" d="M84 461v145h401v-145h-401z" />
<glyph unicode="&#x2013;" horiz-adv-x="1024" d="M0 463v147h1026v-147h-1026z" />
<glyph unicode="&#x2014;" horiz-adv-x="2048" d="M0 463v147h2048v-147h-2048z" />
<glyph unicode="&#x2018;" horiz-adv-x="372" d="M78 1049.5q0 50.5 15.5 96.5t40.5 87q55 88 124 133l45 -63q-98 -84 -104 -150q35 -4 66.5 -33.5t31.5 -79t-27.5 -86t-71 -36.5t-64.5 12t-34 32q-22 37 -22 87.5z" />
<glyph unicode="&#x2019;" horiz-adv-x="372" d="M68 981q41 37 70.5 73t33.5 76q-35 4 -66.5 34t-31.5 79t27.5 86t81.5 37t82 -41t28 -95t-19.5 -103.5t-47.5 -90.5q-53 -79 -113 -118z" />
<glyph unicode="&#x201a;" horiz-adv-x="372" d="M68 -156q97 86 104 150q-35 4 -66.5 33.5t-31.5 79t27.5 86t81.5 36.5t82 -41t28 -110.5t-55 -157.5q-48 -79 -125 -139z" />
<glyph unicode="&#x201c;" horiz-adv-x="718" d="M78 1049.5q0 50.5 15.5 96.5t40.5 87q55 88 124 133l45 -63q-98 -84 -104 -150q35 -4 66.5 -33.5t31.5 -79t-27.5 -86t-71 -36.5t-64.5 12t-34 32q-22 37 -22 87.5zM424 1049.5q0 50.5 15.5 96.5t40.5 87q55 88 124 133l45 -63q-98 -84 -104 -150q35 -4 66.5 -33.5 t31.5 -79t-27.5 -86t-71 -36.5t-64.5 12t-34 32q-22 37 -22 87.5z" />
<glyph unicode="&#x201d;" horiz-adv-x="718" d="M68 981q41 37 70.5 73t33.5 76q-35 4 -66.5 34t-31.5 79t27.5 86t81.5 37t82 -41t28 -95t-19.5 -103.5t-47.5 -90.5q-53 -79 -113 -118zM414 981q41 37 70.5 73t33.5 76q-35 4 -66.5 34t-31.5 79t27.5 86t81.5 37t82 -41t28 -95t-19.5 -103.5t-47.5 -90.5 q-53 -79 -113 -118z" />
<glyph unicode="&#x201e;" horiz-adv-x="718" d="M68 -156q97 86 104 150q-35 4 -66.5 33.5t-31.5 79t27.5 86t81.5 36.5t82 -41t28 -110.5t-55 -157.5q-48 -79 -125 -139zM414 -156q97 86 104 150q-35 4 -66.5 33.5t-31.5 79t27.5 86t81.5 36.5t82 -41t28 -110.5t-55 -157.5q-48 -79 -125 -139z" />
<glyph unicode="&#x2022;" horiz-adv-x="948" d="M98 793q0 167 109 280q113 117 268 117q154 0 265 -117q110 -115 110 -280q0 -163 -110 -280q-108 -116 -265 -116q-155 0 -266 115t-111 281z" />
<glyph unicode="&#x2026;" horiz-adv-x="1079" d="M82 92q0 53 30.5 85t79 32t78 -32t29.5 -85t-29.5 -84t-77.5 -31t-79 31t-31 84zM432 92q0 53 30.5 85t79 32t78 -32t29.5 -85t-29.5 -84t-77.5 -31t-79 31t-31 84zM793 92q0 53 30.5 85t79 32t78 -32t29.5 -85t-29.5 -84t-77.5 -31t-79 31t-31 84z" />
<glyph unicode="&#x202f;" horiz-adv-x="368" />
<glyph unicode="&#x2039;" horiz-adv-x="581" d="M29 512l379 418l100 -80l-283 -328l310 -321l-93 -90z" />
<glyph unicode="&#x203a;" horiz-adv-x="581" d="M47 201l309 321l-282 328l102 80l377 -418l-414 -401z" />
<glyph unicode="&#x205f;" horiz-adv-x="460" />
<glyph unicode="&#x20ac;" d="M76 461v139h676v-139h-355q16 -174 91 -256t180.5 -82t169 39t110.5 88l68 -133q-140 -140 -335 -140t-310 121t-140 363h-155zM76 741v142h155q25 236 133.5 365.5t299.5 129.5q196 0 302 -134q29 -36 52 -68l-98 -107q-49 70 -106.5 116t-151.5 46q-129 0 -190.5 -89 t-76.5 -259h357v-142h-676z" />
<glyph unicode="&#x2122;" horiz-adv-x="1206" d="M37 1264v102h418v-102h-156v-486h-106v486h-156zM545 778v588h117l165 -444l158 444h115v-588h-109v346l-129 -350h-74l-135 361v-357h-108z" />
<glyph unicode="&#xe000;" horiz-adv-x="972" d="M0 0v973h973v-973h-973z" />
</font>
</defs>
</svg>
